<?xml version="1.0" encoding="iso-8859-1"?>
<!-- Uploaded to: SVG Repo, www.svgrepo.com, Generator: SVG Repo Mixer Tools -->
<svg height="800px" width="800px" version="1.1" id="Layer_1" xmlns="http://www.w3.org/2000/svg" xmlns:xlink="http://www.w3.org/1999/xlink" 
	 viewBox="0 0 503.322 503.322" xml:space="preserve">
<g>
	<path style="fill:#A98258;" d="M459.928,199.593h-43.39v60.746l-26.034-17.356l-26.034,17.356v-60.746h-78.102v182.237
		c0,19.17-15.542,34.712-34.712,34.712H364.47h52.068h43.39c19.17,0,34.712-15.542,34.712-34.712V234.305
		C494.64,215.135,479.098,199.593,459.928,199.593"/>
	<path style="fill:#C69666;" d="M312.402,8.678h-34.712v60.746l-26.034-17.356l-26.034,17.356V8.678h-34.712
		c-19.17,0-34.712,15.542-34.712,34.712v104.136h34.712v8.678h60.746c19.17,0,34.712,15.542,34.712,34.712v8.678h26.034
		c19.17,0,34.712-15.542,34.712-34.712V43.39C347.114,24.22,331.572,8.678,312.402,8.678"/>
	<polygon style="fill:#E8D5B2;" points="190.911,242.983 147.521,208.271 104.131,242.983 104.131,147.525 190.911,147.525 	"/>
	<path style="fill:#60442B;" d="M251.657,156.203h-60.746v86.78l-43.39-34.712l-43.39,34.712v-86.78H43.385
		c-19.17,0-34.712,15.542-34.712,34.712v190.915c0,19.17,15.542,34.712,34.712,34.712h208.271c19.17,0,34.712-15.542,34.712-34.712
		V190.915C286.369,171.746,270.826,156.203,251.657,156.203"/>
	<g>
		<path style="fill:#896745;" d="M251.657,390.508h-34.712c-4.79,0-8.678-3.879-8.678-8.678s3.888-8.678,8.678-8.678h34.712
			c4.79,0,8.678,3.879,8.678,8.678S256.447,390.508,251.657,390.508"/>
		<path style="fill:#896745;" d="M251.657,355.797h-52.068c-4.79,0-8.678-3.879-8.678-8.678s3.888-8.678,8.678-8.678h52.068
			c4.79,0,8.678,3.879,8.678,8.678S256.447,355.797,251.657,355.797"/>
	</g>
	<polygon style="fill:#E8D5B2;" points="277.691,69.424 251.657,52.068 225.623,69.424 225.623,0 277.691,0 	"/>
	<g>
		<path style="fill:#896745;" d="M459.928,399.186h-17.356c-4.79,0-8.678-3.879-8.678-8.678c0-4.799,3.888-8.678,8.678-8.678h17.356
			c4.79,0,8.678,3.879,8.678,8.678C468.606,395.307,464.718,399.186,459.928,399.186"/>
		<path style="fill:#896745;" d="M459.928,373.153h-34.712c-4.79,0-8.678-3.879-8.678-8.678s3.888-8.678,8.678-8.678h34.712
			c4.79,0,8.678,3.879,8.678,8.678S464.718,373.153,459.928,373.153"/>
	</g>
	<polygon style="fill:#E8D5B2;" points="416.538,260.339 390.504,242.983 364.47,260.339 364.47,190.915 416.538,190.915 	"/>
	<polygon style="fill:#896745;" points="0,468.61 503.322,468.61 503.322,416.542 0,416.542 	"/>
	<g>
		<polygon style="fill:#60442B;" points="17.356,503.322 86.78,503.322 86.78,468.61 17.356,468.61 		"/>
		<polygon style="fill:#60442B;" points="416.542,503.322 485.966,503.322 485.966,468.61 416.542,468.61 		"/>
		<polygon style="fill:#60442B;" points="216.949,503.322 286.373,503.322 286.373,468.61 216.949,468.61 		"/>
	</g>
</g>
</svg>