<?xml version="1.0" encoding="iso-8859-1"?>
<!-- Uploaded to: SVG Repo, www.svgrepo.com, Generator: SVG Repo Mixer Tools -->
<svg height="800px" width="800px" version="1.1" id="Layer_1" xmlns="http://www.w3.org/2000/svg" xmlns:xlink="http://www.w3.org/1999/xlink" 
	 viewBox="0 0 512 512" xml:space="preserve">
<g>
	<path style="fill:#896745;" d="M269.241,220.69v-61.793H30.897c-14.627,0-26.483,11.855-26.483,26.483v300.138
		C4.414,500.145,16.269,512,30.897,512h176.552c14.627,0,26.483-11.855,26.483-26.483V274.556c0-15.122,11.361-27.383,26.483-27.383
		h35.31C281.097,247.172,269.241,235.317,269.241,220.69"/>
	<polygon style="fill:#E8D5B2;" points="180.966,273.655 145.655,247.172 110.345,273.655 110.345,158.897 180.966,158.897 	"/>
	<path style="fill:#C69666;" d="M481.103,247.172H286.897c-14.627,0-26.483-11.855-26.483-26.483V26.483
		C260.414,11.855,272.269,0,286.897,0h194.207c14.627,0,26.483,11.855,26.483,26.483V220.69
		C507.586,235.317,495.731,247.172,481.103,247.172"/>
	<polygon style="fill:#E8D5B2;" points="419.31,114.759 384,88.276 348.69,114.759 348.69,0 419.31,0 	"/>
	<path style="fill:#A98258;" d="M481.103,512H251.586c-14.627,0-26.483-11.855-26.483-26.483V274.556
		c0-15.122,12.262-27.383,27.383-27.383h228.617c14.627,0,26.483,11.855,26.483,26.483v211.862
		C507.586,500.145,495.731,512,481.103,512"/>
	<polygon style="fill:#E8D5B2;" points="401.655,361.931 366.345,335.448 331.034,361.931 331.034,247.172 401.655,247.172 	"/>
</g>
</svg>