<?xml version="1.0" encoding="UTF-8" standalone="no"?>
<!-- Uploaded to: SVG Repo, www.svgrepo.com, Generator: SVG Repo Mixer Tools -->

<svg
   fill="#000000"
   width="800px"
   height="800px"
   viewBox="0 0 64 64"
   version="1.1"
   id="svg5"
   sodipodi:docname="discount.svg"
   inkscape:version="1.4.3 (fcd0343856, 2026-01-01)"
   xmlns:inkscape="http://www.inkscape.org/namespaces/inkscape"
   xmlns:sodipodi="http://sodipodi.sourceforge.net/DTD/sodipodi-0.dtd"
   xmlns="http://www.w3.org/2000/svg"
   xmlns:svg="http://www.w3.org/2000/svg">
  <defs
     id="defs5" />
  <sodipodi:namedview
     id="namedview5"
     pagecolor="#ffffff"
     bordercolor="#000000"
     borderopacity="0.25"
     inkscape:showpageshadow="2"
     inkscape:pageopacity="0.0"
     inkscape:pagecheckerboard="0"
     inkscape:deskcolor="#d1d1d1"
     inkscape:zoom="1.10125"
     inkscape:cx="400"
     inkscape:cy="400"
     inkscape:window-width="1881"
     inkscape:window-height="1131"
     inkscape:window-x="0"
     inkscape:window-y="0"
     inkscape:window-maximized="1"
     inkscape:current-layer="_32_promo" />
  <g
     data-name="32 promo"
     id="_32_promo"
     transform="translate(0.14528944,0.6538025)">
    <path
       d="M 60.27,42.05 C 59.99,41.27 59.89,40.98 59.84,40.86 A 3.762,3.762 0 0 0 56.1,38.42 c -0.15,0 -0.3,0.01 -0.46,0.02 -1.24,0.1 -2.46,0.31 -3.64,0.5 -1.01,0.17 -2.06,0.34 -3.08,0.45 a 51.767,51.767 0 0 1 -7.03,0.32 52.933,52.933 0 0 1 -5.91,-0.51 3.661,3.661 0 0 0 -0.33,-2.03 3.936,3.936 0 0 0 -2.54,-2.08 l -9.48,-2.58 a 9.588,9.588 0 0 0 -4.58,-0.09 l -4.08,0.91 v -3.4 a 2,2 0 0 0 -2,-2 H 5.5 a 2,2 0 0 0 -2,2 v 25 a 2.006,2.006 0 0 0 2,2 h 7.47 a 2.006,2.006 0 0 0 2,-2 v -2.62 l 16.53,3 a 12.686,12.686 0 0 0 2.3,0.2 12.821,12.821 0 0 0 4.7,-0.89 l 19.52,-7.73 a 3.8,3.8 0 0 0 2.25,-4.84 z M 12.97,54.93 H 5.5 v -25 h 7.47 z m 44.31,-9.9 -19.51,7.73 a 10.822,10.822 0 0 1 -5.91,0.58 L 14.97,50.28 v -14.9 l 4.52,-1.01 a 7.642,7.642 0 0 1 3.62,0.07 l 9.47,2.58 a 1.934,1.934 0 0 1 1.27,1.02 1.725,1.725 0 0 1 0.03,1.44 2.022,2.022 0 0 1 -2.02,1.17 l -8.22,-1.7 a 1,1 0 0 0 -1.18,0.77 1.01,1.01 0 0 0 0.77,1.19 l 8.28,1.71 a 0.34,0.34 0 0 0 0.1,0.01 2.748,2.748 0 0 0 0.4,0.02 4.089,4.089 0 0 0 3.2,-1.54 54.458,54.458 0 0 0 6.62,0.6 54.033,54.033 0 0 0 7.3,-0.33 c 1.08,-0.12 2.16,-0.29 3.2,-0.47 1.14,-0.19 2.32,-0.38 3.48,-0.48 a 1.948,1.948 0 0 1 2.15,1.11 v 0.01 l 0.43,1.18 a 1.814,1.814 0 0 1 -1.11,2.3 z"
       id="path1" />
    <path
       d="m 50.229978,20.128933 a 6.7412032,4.7434733 0 1 0 6.741203,4.743473 6.7412032,4.7434733 0 0 0 -6.741203,-4.743473 z m 0,6.324631 a 2.2470677,1.5811578 0 1 1 2.247067,-1.581158 2.2470677,1.5811578 0 0 1 -2.247067,1.581158 z"
       id="path3"
       style="stroke-width:1.88493" />
    <path
       d="m 34.084314,5.0994784 a 6.7412032,4.7434733 0 1 0 6.741203,4.743473 6.7412032,4.7434733 0 0 0 -6.741203,-4.743473 z m 0,6.3246306 a 2.2470677,1.5811578 0 1 1 2.247067,-1.5811576 2.2470677,1.5811578 0 0 1 -2.247067,1.5811576 z"
       id="path3-5"
       style="stroke-width:1.88493" />
    <path
       d="m 32.125681,28.195915 a 1.9620405,1.977445 7.3311042 0 0 2.776367,0.0325 L 53.81348,9.6303338 A 1.9623873,1.9777945 7.3311593 0 0 51.07494,6.8022908 L 32.163507,25.40037 a 1.9620405,1.977445 7.3311042 0 0 -0.03783,2.795545 z"
       id="path5"
       style="stroke-width:1.96972" />
  </g>
</svg>
