<?xml version="1.0" encoding="UTF-8" standalone="no"?>
<!-- Uploaded to: SVG Repo, www.svgrepo.com, Generator: SVG Repo Mixer Tools -->

<svg
   fill="#000000"
   width="800px"
   height="800px"
   viewBox="0 0 59.998 59.998"
   id="Capa_1"
   version="1.1"
   xml:space="preserve"
   sodipodi:docname="price_tag.svg"
   inkscape:version="1.4.3 (fcd0343856, 2026-01-01)"
   xmlns:inkscape="http://www.inkscape.org/namespaces/inkscape"
   xmlns:sodipodi="http://sodipodi.sourceforge.net/DTD/sodipodi-0.dtd"
   xmlns="http://www.w3.org/2000/svg"
   xmlns:svg="http://www.w3.org/2000/svg"><defs
   id="defs26"><rect
   x="155.27809"
   y="238.81952"
   width="335.07378"
   height="308.74007"
   id="rect63" />























</defs><sodipodi:namedview
   id="namedview26"
   pagecolor="#ffffff"
   bordercolor="#000000"
   borderopacity="0.25"
   inkscape:showpageshadow="2"
   inkscape:pageopacity="0.0"
   inkscape:pagecheckerboard="0"
   inkscape:deskcolor="#d1d1d1"
   inkscape:zoom="1.10125"
   inkscape:cx="401.36209"
   inkscape:cy="400"
   inkscape:window-width="1881"
   inkscape:window-height="1131"
   inkscape:window-x="0"
   inkscape:window-y="0"
   inkscape:window-maximized="1"
   inkscape:current-layer="Capa_1" />

<path
   d="m 0.79225,0.293 c 0.391,-0.391 1.023,-0.391 1.414,0 L 5.91325,4 h 23.283 l 29.27,29.511 c 0.666,0.666 1.033,1.553 1.033,2.495 0,0.942 -0.367,1.829 -1.033,2.495 l -20.466,20.466 c -0.687,0.687 -1.588,1.031 -2.491,1.031 -0.907,0 -1.814,-0.347 -2.509,-1.041 L 4.49925,29.686 V 5.414 l -3.707,-3.707 c -0.391,-0.391 -0.391,-1.023 0,-1.414 z m 5.707,28.581 27.925,28.679 c 0.596,0.596 1.566,0.596 2.162,0 l 20.466,-20.466 c 0.596,-0.596 0.596,-1.566 -0.003,-2.165 L 28.36225,6 h -20.449 l 4.833,4.833 c 0.791,-0.524 1.736,-0.833 2.753,-0.833 2.757,0 5,2.243 5,5 0,2.757 -2.243,5 -5,5 -2.757,0 -5,-2.243 -5,-5 0,-1.017 0.309,-1.962 0.833,-2.753 l -4.833,-4.833 z m 6,-13.874 c 0,1.654 1.346,3 3,3 1.654,0 3,-1.346 3,-3 0,-1.654 -1.346,-3 -3,-3 -0.462,0 -0.894,0.114 -1.285,0.301 l 1.992,1.992 c 0.391,0.391 0.391,1.023 0,1.414 -0.195,0.195 -0.451,0.293 -0.707,0.293 -0.256,0 -0.512,-0.098 -0.707,-0.293 l -1.992,-1.992 c -0.188,0.391 -0.301,0.823 -0.301,1.285 z"
   id="path1" />































<path
   style="font-weight:bold;font-size:166.582px;font-family:'B Mitra';-inkscape-font-specification:'B Mitra Bold';white-space:pre;fill:#717171;stroke-width:0.106816"
   d="m 44.447562,44.101003 q -1.402687,1.065991 -2.217932,1.132758 -1.511392,0.124985 -2.820217,-1.196346 l -0.412633,-0.416578 1.521252,-1.672185 0.670531,0.676938 q 1.399089,1.412458 1.759969,1.015772 0.249842,-0.274629 0.370747,-1.943885 l 2.158824,-0.279213 q -0.108902,1.669664 -1.030537,2.68274 z m 4.280057,-2.774056 -1.655922,-0.05605 -0.219739,-1.661915 -1.541479,-0.04588 -0.231559,-1.744096 1.672576,0.03774 0.208636,1.67412 1.552584,0.03368 z m -9.343992,2.684434 -0.831716,-0.839663 q -1.830908,1.441525 -5.081503,1.602003 -0.541581,-0.546757 -1.084953,-1.540221 -0.528684,-0.955224 -0.727296,-1.729422 2.06103,0.956763 3.468365,1.136506 1.262446,0.162256 2.651697,-0.249949 -2.127646,-2.147977 -2.256944,-3.379057 1.249204,-1.373145 2.740718,-1.693816 0.996491,-0.211612 1.793467,0.05441 0.638293,0.644392 0.721924,1.653749 0.104405,1.217656 -0.704222,2.473606 l 0.831716,0.839665 z m -0.412974,-3.203408 q 0.158145,-0.554527 0.133614,-1.152983 -0.02883,-0.743289 -0.383436,-1.101286 -0.180529,-0.182252 -0.670893,-0.09191 -0.413712,0.07407 -0.647613,0.236002 -0.112292,0.272994 0.220641,0.831561 0.244641,0.410891 0.560565,0.729834 0.406187,0.410069 0.787123,0.548778 z m -3.875431,-4.088084 q -1.761056,0.739322 -2.750203,0.548573 -1.063822,-1.073989 -1.221771,-3.130133 -1.191528,0.330826 -1.778241,-0.261494 l -0.386846,-0.390542 1.521253,-1.672186 0.57382,0.579304 q 0.245002,0.247343 1.525182,-0.09935 1.59145,-0.430523 2.316968,-0.412256 1.302377,1.314822 1.325652,2.485697 0.01235,1.101305 -1.125814,2.352392 z m -1.446376,-0.47673 q 0.123934,-0.10904 0.22387,-0.218891 1.049332,-1.153442 -0.01431,-2.730686 -0.584032,-0.132995 -1.146932,0.200229 -0.09672,1.166812 0.93737,2.749348 z m -4.303838,-2.366324 -0.393292,-0.39705 q -1.231456,-1.243223 -0.728187,-2.584999 0.342618,-0.906858 2.313048,-3.249535 0.977334,-1.155878 1.313501,-1.647763 0.656573,-0.952849 0.94761,-1.911779 l 2.245864,0.0194 q -0.108714,0.744926 -0.881702,1.744159 -0.279572,0.361694 -1.26783,1.448003 l -1.637847,1.800346 q -0.732866,0.805578 -0.943485,1.295421 -0.374854,0.874313 0.282781,1.538234 l 0.270791,0.273379 z m -3.664993,-4.074667 q -0.68845,0.756756 -2.290112,1.633579 -1.12723,0.05621 -2.506088,-0.481141 -1.717347,-0.668336 -3.090645,-2.054758 -1.669879,-1.685835 -1.619363,-3.250532 0.03636,-1.005296 0.752573,-1.792565 1.032675,-1.135133 4.115996,-1.628394 0.04979,0.02685 0.08847,0.0659 0.309475,0.312433 0.164763,0.634656 -1.721473,0.369506 -2.421027,1.138466 -0.682898,0.750653 -0.375933,1.786442 0.251983,0.851495 1.096594,1.704176 1.134744,1.145588 2.541001,1.815975 1.251339,0.595945 1.926353,0.492978 0.993279,-1.690056 0.851269,-3.43741 l 2.218469,-0.9566 q -0.0013,0.993902 -0.390804,2.251456 -0.428585,1.382049 -1.061516,2.077776 z m 1.04292,-6.217744 -1.881941,-0.120317 -0.141472,-1.992678 1.890178,0.15205 z"
   id="text63"
   aria-label="تومان" /></svg>
