<?xml version="1.0" encoding="UTF-8" standalone="no"?>
<!-- Uploaded to: SVG Repo, www.svgrepo.com, Generator: SVG Repo Mixer Tools -->

<svg
   width="800px"
   height="800px"
   viewBox="0 0 24 24"
   fill="none"
   version="1.1"
   id="svg1"
   sodipodi:docname="list.svg"
   inkscape:version="1.4.2 (2aeb623e1d, 2025-05-12)"
   xmlns:inkscape="http://www.inkscape.org/namespaces/inkscape"
   xmlns:sodipodi="http://sodipodi.sourceforge.net/DTD/sodipodi-0.dtd"
   xmlns="http://www.w3.org/2000/svg"
   xmlns:svg="http://www.w3.org/2000/svg">
  <defs
     id="defs1" />
  <sodipodi:namedview
     id="namedview1"
     pagecolor="#ffffff"
     bordercolor="#000000"
     borderopacity="0.25"
     inkscape:showpageshadow="2"
     inkscape:pageopacity="0.0"
     inkscape:pagecheckerboard="0"
     inkscape:deskcolor="#d1d1d1"
     inkscape:zoom="1.00375"
     inkscape:cx="400"
     inkscape:cy="400"
     inkscape:window-width="1875"
     inkscape:window-height="1011"
     inkscape:window-x="0"
     inkscape:window-y="0"
     inkscape:window-maximized="1"
     inkscape:current-layer="svg1" />
  <path
     d="M 16,6.00067 3,6.00139 m 13,5.99931 -13,8e-4 m 13,5.9992 -13,8e-4 M 20.5,6 h -0.01 m 0.01,6 h -0.01 m 0.01,6 H 20.49 M 20,6 c 0,0.27614 0.22386,0.5 0.5,0.5 C 20.77614,6.5 21,6.27614 21,6 21,5.72386 20.77614,5.5 20.5,5.5 20.22386,5.5 20,5.72386 20,6 Z m 0,6 c 0,0.2761 0.22386,0.5 0.5,0.5 0.27614,0 0.5,-0.2239 0.5,-0.5 0,-0.2761 -0.22386,-0.5 -0.5,-0.5 -0.27614,0 -0.5,0.2239 -0.5,0.5 z m 0,6 c 0,0.2761 0.22386,0.5 0.5,0.5 0.27614,0 0.5,-0.2239 0.5,-0.5 0,-0.2761 -0.22386,-0.5 -0.5,-0.5 -0.27614,0 -0.5,0.2239 -0.5,0.5 z"
     stroke="#000000"
     stroke-width="2"
     stroke-linecap="round"
     stroke-linejoin="round"
     id="path1"
     sodipodi:nodetypes="ccccccccccccsssssssssssssss" />
  <path
     style="fill:#0000ff;stroke-width:0.996264"
     d="m 667.76758,246.73011 c -35.44255,-12.07889 -45.28311,-56.86652 -18.08469,-82.30931 13.90974,-13.01189 32.1159,-17.04405 49.6771,-11.00211 23.84154,8.20269 38.10891,34.28061 31.86672,58.24601 -4.44301,17.05786 -17.75421,30.96797 -34.27179,35.8138 -8.11953,2.38205 -20.96855,2.0526 -29.18734,-0.74839 z"
     id="path2"
     transform="scale(0.03)" />
  <path
     style="fill:#0000ff;stroke-width:0.996264"
     d="m 671.23355,447.7757 c -17.81919,-4.79829 -31.34479,-18.60505 -36.06708,-36.8168 -0.56832,-2.19178 -1.03049,-7.12328 -1.02705,-10.9589 0.0233,-25.89186 19.94555,-47.21719 45.81077,-49.03703 14.86451,-1.04585 28.20672,4.15393 38.70113,15.08277 18.59494,19.36469 18.64912,48.4874 0.1261,67.77719 -12.55484,13.07458 -30.85775,18.44595 -47.54387,13.95277 z"
     id="path3"
     transform="scale(0.03)" />
  <path
     style="fill:#0000ff;stroke-width:0.996264"
     d="m 672.32665,648.21607 c -17.65129,-4.51003 -31.61398,-18.17055 -36.74767,-35.95243 -2.26908,-7.85956 -1.58349,-21.64092 1.47617,-29.67312 4.67128,-12.26299 16.36291,-23.97023 28.72341,-28.76176 7.90617,-3.06481 22.66092,-3.74889 30.7225,-1.42439 16.89457,4.87142 30.22955,18.66925 34.72565,35.93093 6.24948,23.9934 -7.98307,49.97395 -31.9298,58.28564 -7.45276,2.58679 -20.14999,3.33774 -26.97026,1.59513 z"
     id="path4"
     transform="scale(0.03)" />
  <path
     style="fill:#0000ff;stroke-width:0.996264"
     d="m 92.869242,232.04378 c -9.109715,-2.15838 -17.001423,-8.34615 -21.702113,-17.0163 -3.137931,-5.78774 -3.420371,-7.01127 -3.411445,-14.77841 0.0075,-6.54385 0.496745,-9.52682 2.152817,-13.12645 3.031342,-6.58891 9.563168,-13.26843 16.127358,-16.49202 l 5.62043,-2.76011 H 316.81196 541.96762 l 5.63939,2.76939 c 15.62986,7.67552 22.88438,27.60957 15.52329,42.65509 -3.426,7.00249 -9.58865,13.15239 -16.667,16.63252 l -5.49194,2.70016 -222.16688,0.15448 c -128.09606,0.0891 -223.762488,-0.22356 -225.935238,-0.73835 z"
     id="path5"
     transform="scale(0.03)" />
  <path
     style="fill:#000080;stroke-width:0.996264"
     d="m 677.34715,448.29227 c -18.40328,-2.59697 -34.04827,-15.50279 -40.27726,-33.22538 -2.65988,-7.56783 -2.65751,-21.04108 0.005,-29.65684 9.37441,-30.33283 46.1203,-43.56704 72.44723,-26.09222 7.48327,4.96711 13.99392,12.59134 18.15057,21.25502 3.50141,7.29798 3.58489,7.75038 3.58489,19.42715 0,11.75394 -0.0627,12.08651 -3.7259,19.75837 -9.31139,19.50099 -30.16656,31.35876 -50.18473,28.5339 z"
     id="path6"
     transform="scale(0.03)" />
  <path
     style="fill:#008080;stroke-width:0.996264"
     d="M 94.875719,432.35004 C 84.344352,430.55926 75.009973,423.37128 70.33138,413.44956 66.810182,405.9823 66.686943,394.4146 70.05011,387.04857 c 2.857404,-6.25831 9.1669,-12.82803 15.628595,-16.27316 l 4.98132,-2.65586 H 316.81196 542.96389 l 4.20642,2.24771 c 9.10173,4.86353 14.81971,11.73794 17.6274,21.19248 2.07296,6.98043 1.99151,10.37975 -0.43715,18.24285 -2.68093,8.6798 -9.38569,16.14776 -18.11749,20.1798 l -6.26798,2.89432 -220.17434,0.14058 C 198.70486,433.0946 97.488594,432.79434 94.875719,432.35004 Z"
     id="path7"
     transform="scale(0.03)" />
  <path
     style="fill:#800080;stroke-width:0.996264"
     d="m 672.09198,446.74416 c -12.97428,-3.48922 -25.74004,-13.93498 -31.86974,-26.07785 -5.37931,-10.65636 -6.04241,-25.55801 -1.68664,-37.90357 2.30712,-6.5391 8.35381,-14.94747 13.93972,-19.38425 23.55502,-18.70931 54.76577,-13.66599 71.2896,11.51963 2.22745,3.39507 4.5593,7.85406 5.18189,9.90885 0.62258,2.0548 1.39725,3.73517 1.72147,3.73416 0.32423,-0.001 0.36534,5.50225 0.0914,12.22945 -0.46424,11.39908 -0.72906,12.70008 -3.89226,19.12147 -10.1928,20.69171 -34.10116,32.41211 -54.77541,26.85211 z"
     id="path8"
     transform="scale(0.03)" />
  <path
     style="fill:#800080;stroke-width:0.996264"
     d="m 670.48568,647.16894 c -13.42922,-4.26507 -25.07405,-14.42687 -31.12549,-27.1615 -3.38063,-7.11418 -3.74145,-8.70077 -4.08623,-17.96808 -0.30697,-8.25088 0.0141,-11.43994 1.70496,-16.93649 4.13109,-13.42888 17.8796,-27.1798 31.30414,-31.30961 5.54241,-1.70502 8.70353,-2.01436 17.506,-1.71307 9.99831,0.34222 11.25475,0.621 18.14284,4.02558 26.80901,13.25087 36.00769,45.43041 20.04596,70.12631 -6.97229,10.78748 -19.05326,19.11152 -30.96316,21.33427 -7.18705,1.34132 -17.63465,1.15702 -22.52902,-0.39741 z"
     id="path9"
     transform="scale(0.03)" />
  <path
     style="fill:#008080;stroke-width:0.996264"
     d="m 88.470233,630.53747 c -7.005718,-2.69954 -14.507575,-9.6587 -17.934378,-16.63698 -2.391285,-4.86957 -2.789902,-6.89124 -2.789902,-14.14956 0,-7.75778 0.287026,-8.99764 3.421176,-14.77841 3.77164,-6.95657 9.106722,-11.89147 16.583465,-15.33952 l 4.901959,-2.26065 H 315.81569 c 213.86954,0 223.38144,0.0761 228.40502,1.82735 6.98161,2.43382 15.28448,10.09586 18.86035,17.40468 7.41201,15.14962 0.20808,35.05456 -15.47405,42.75574 l -5.63939,2.76939 -224.1594,0.20172 C 95.679662,632.53112 93.6019,632.51487 88.470233,630.53747 Z"
     id="path10"
     transform="scale(0.03)" />
  <path
     style="fill:#008080;stroke-width:0.996264"
     d="m 671.48194,445.92361 c -11.39094,-3.61772 -23.20076,-12.81322 -29.09853,-22.65704 -8.06488,-13.46088 -8.26876,-31.56951 -0.51909,-46.10606 5.83007,-10.93584 19.31991,-20.83724 32.13276,-23.58511 21.04226,-4.51275 42.55963,7.04202 52.90964,28.41235 l 4.18502,8.64108 -0.97816,11.65944 c -0.79716,9.50188 -1.49334,12.69965 -3.76218,17.28083 -5.88224,11.87726 -17.612,21.87368 -30.245,25.77562 -7.33814,2.26651 -18.48557,2.52858 -24.62446,0.57889 z"
     id="path11"
     transform="scale(0.03)" />
  <path
     style="fill:#800080;stroke-width:0.996264"
     d="m 92.052142,630.70124 c -8.409233,-1.6424 -17.099959,-9.11422 -21.438707,-18.43185 -3.476662,-7.46627 -3.338433,-18.15265 0.330028,-25.51429 3.360484,-6.74362 9.698231,-12.99836 16.584894,-16.36769 l 5.271977,-2.57934 224.085516,0.28028 224.08551,0.28027 5.62043,2.76012 c 6.24307,3.06588 12.46998,9.23633 15.96558,15.82079 3.28005,6.17844 3.28097,19.22644 0.002,25.88845 -3.43804,6.98484 -8.33708,12.11318 -14.92676,15.62544 l -5.9437,3.16796 -223.02369,-0.11457 C 196.002,631.4538 94.026204,631.08679 92.052142,630.70124 Z"
     id="path12"
     transform="scale(0.03)" />
</svg>
