<?xml version="1.0" encoding="UTF-8" standalone="no"?>
<!-- Uploaded to: SVG Repo, www.svgrepo.com, Generator: SVG Repo Mixer Tools -->

<svg
   width="800px"
   height="800px"
   viewBox="0 0 61.7998 61.7998"
   version="1.1"
   id="svg12"
   sodipodi:docname="female.svg"
   inkscape:version="1.4.2 (2aeb623e1d, 2025-05-12)"
   xmlns:inkscape="http://www.inkscape.org/namespaces/inkscape"
   xmlns:sodipodi="http://sodipodi.sourceforge.net/DTD/sodipodi-0.dtd"
   xmlns="http://www.w3.org/2000/svg"
   xmlns:svg="http://www.w3.org/2000/svg">
  <defs
     id="defs12" />
  <sodipodi:namedview
     id="namedview12"
     pagecolor="#ffffff"
     bordercolor="#000000"
     borderopacity="0.25"
     inkscape:showpageshadow="2"
     inkscape:pageopacity="0.0"
     inkscape:pagecheckerboard="0"
     inkscape:deskcolor="#d1d1d1"
     inkscape:zoom="1.00375"
     inkscape:cx="400"
     inkscape:cy="400"
     inkscape:window-width="1875"
     inkscape:window-height="1011"
     inkscape:window-x="0"
     inkscape:window-y="0"
     inkscape:window-maximized="1"
     inkscape:current-layer="svg12"
     showgrid="false" />
  <title
     id="title1" />
  <g
     data-name="Layer 2"
     id="Layer_2">
    <g
       data-name="—ÎÓÈ 1"
       id="_ÎÓÈ_1">
      <path
         d="m 31.129,8.432 c 21.281,0 12.987,35.266 0,35.266 -12.266,0 -21.281,-35.266 0,-35.266 z"
         fill="#ffe8be"
         fill-rule="evenodd"
         id="path1"
         style="display:inline" />
      <circle
         cx="30.8999"
         cy="30.8999"
         fill="#a9cf54"
         r="30.8999"
         id="circle1"
         style="display:inline;fill:#ececec" />
      <path
         d="m 16.647,25.104 c 0,0 1.394,18.62 -1.98,23.645 -3.374,5.025 16.51,-0.19 16.51,-0.19 l 0.006,-34.863 z"
         fill="#302e33"
         fill-rule="evenodd"
         id="path2"
         style="display:inline" />
      <path
         d="m 45.705,25.104 c 0,0 -1.394,18.62 1.981,23.645 3.375,5.025 -16.51,-0.19 -16.51,-0.19 L 31.17,13.696 Z"
         fill="#302e33"
         fill-rule="evenodd"
         id="path3"
         style="display:inline" />
      <path
         d="m 52.797,52.701 c -0.608,-1.462 -0.494,-2.918 -5.365,-5.187 -2.293,-0.542 -8.21,-1.319 -9.328,-3.4 -0.567,-1.052 -0.43,-2.535 -0.43,-5.292 L 24.744,38.68 c 0,2.777 0.109,4.258 -0.524,5.298 -1.19,1.957 -8.935,3.384 -11.338,4.024 -4.093,1.819 -3.625,2.925 -4.165,4.406 a 30.896,30.896 0 0 0 44.08,0.293 z"
         fill="#f9dca4"
         fill-rule="evenodd"
         id="path4"
         style="display:inline" />
      <path
         d="m 37.677,38.778 -0.015,2.501 a 5.752,5.752 0 0 0 0.55,3.011 C 33.76,47.71 25.418,46.885 24.496,38.353 Z"
         fill-rule="evenodd"
         opacity="0.11"
         id="path5"
         style="display:inline" />
      <path
         d="m 19.11,24.183 c -2.958,1.29 -0.442,7.41 1.42,7.383 a 30.842,30.842 0 0 1 -1.42,-7.383 z"
         fill="#f9dca4"
         fill-rule="evenodd"
         id="path6"
         style="display:inline" />
      <path
         d="m 43.507,24.182 c 2.96,1.292 0.443,7.411 -1.419,7.384 a 30.832,30.832 0 0 0 1.419,-7.384 z"
         fill="#f9dca4"
         fill-rule="evenodd"
         id="path7"
         style="display:inline" />
      <path
         d="m 31.114,8.666 c 8.722,0 12.377,6.2 12.601,13.367 0.307,9.81 -5.675,21.43 -12.6,21.43 -6.56,0 -12.706,-12.018 -12.333,-21.928 0.26,-6.953 3.814,-12.869 12.332,-12.869 z"
         fill="#ffe8be"
         fill-rule="evenodd"
         id="path8"
         style="display:inline" />
      <path
         d="M 31.183,13.697 C 30.604,16.108 27.883,23.864 16.647,25.104 15.477,5.782 30.182,6.256 31.183,6.311 32.185,6.256 46.89,5.781 45.719,25.104 34.484,23.864 31.762,16.108 31.183,13.697 Z"
         fill="#464449"
         fill-rule="evenodd"
         id="path9"
         style="display:inline" />
      <path
         d="m 52.797,52.701 c -14.87,4.578 -34.168,1.815 -39.915,-4.699 -4.093,1.819 -3.625,2.925 -4.165,4.406 a 30.896,30.896 0 0 0 44.08,0.293 z"
         fill="#e9573e"
         fill-rule="evenodd"
         id="path10"
         style="display:inline" />
      <path
         d="m 42.797,46.518 1.071,0.253 -0.004,8.118 h -1.067 z"
         fill="#e9573e"
         fill-rule="evenodd"
         id="path11"
         style="display:inline" />
      <path
         d="m 23.834,44.42 c 0.002,0.013 0.878,4.451 7.544,4.451 6.641,0 7.046,-4.306 7.047,-4.318 l 0.188,0.183 c 0,0.012 -0.564,4.702 -7.235,4.702 -6.797,0 -7.756,-4.83 -7.759,-4.845 z"
         fill="#464449"
         fill-rule="evenodd"
         id="path12"
         style="display:inline" />
      <ellipse
         cx="31.3239"
         cy="49.44545"
         fill="#464449"
         rx="1.5127"
         ry="1.9093"
         id="ellipse12"
         style="display:inline" />
    </g>
  </g>
</svg>
