<?xml version="1.0" encoding="UTF-8" standalone="no"?>
<!-- Uploaded to: SVG Repo, www.svgrepo.com, Generator: SVG Repo Mixer Tools -->

<svg
   width="800px"
   height="800px"
   viewBox="0 0 61.7998 61.7998"
   version="1.1"
   id="svg11"
   sodipodi:docname="male.svg"
   inkscape:version="1.4.2 (2aeb623e1d, 2025-05-12)"
   xmlns:inkscape="http://www.inkscape.org/namespaces/inkscape"
   xmlns:sodipodi="http://sodipodi.sourceforge.net/DTD/sodipodi-0.dtd"
   xmlns="http://www.w3.org/2000/svg"
   xmlns:svg="http://www.w3.org/2000/svg">
  <defs
     id="defs11" />
  <sodipodi:namedview
     id="namedview11"
     pagecolor="#ffffff"
     bordercolor="#000000"
     borderopacity="0.25"
     inkscape:showpageshadow="2"
     inkscape:pageopacity="0.0"
     inkscape:pagecheckerboard="0"
     inkscape:deskcolor="#d1d1d1"
     showgrid="false"
     inkscape:zoom="1.00375"
     inkscape:cx="520.54795"
     inkscape:cy="400"
     inkscape:window-width="1875"
     inkscape:window-height="1011"
     inkscape:window-x="0"
     inkscape:window-y="0"
     inkscape:window-maximized="1"
     inkscape:current-layer="svg11" />
  <title
     id="title1" />
  <g
     data-name="Layer 2"
     id="Layer_2">
    <g
       data-name="—ÎÓÈ 1"
       id="_ÎÓÈ_1">
      <circle
         cx="30.8999"
         cy="30.8999"
         fill="#485a69"
         r="30.8999"
         id="circle1"
         style="display:inline;fill:#ececec" />
      <path
         d="m 23.242,38.592 15.92,0.209 V 51.719 L 23.255,51.598 Z"
         fill="#f9dca4"
         fill-rule="evenodd"
         id="path1"
         style="display:inline" />
      <path
         d="M 53.478,51.993 A 30.814,30.814 0 0 1 30.9,61.8 31.225,31.225 0 0 1 27.063,61.563 30.699,30.699 0 0 1 15.9,57.919 31.033,31.033 0 0 1 8.043,51.694 l 1.284,-3.1 13.925,-6.212 c 0,4.535 1.84,6.152 7.97,6.244 7.57,0.113 7.94,-1.606 7.94,-6.28 l 12.79,6.281 z"
         fill="#d5e1ed"
         fill-rule="evenodd"
         id="path2"
         style="display:inline;mix-blend-mode:normal;fill:#000080" />
      <path
         d="M39.165 38.778v3.404c-2.75 4.914-14 4.998-15.923-3.59z"
         fill-rule="evenodd"
         opacity="0.11"
         id="path3" />
      <path
         d="M31.129 8.432c21.281 0 12.987 35.266 0 35.266-12.267 0-21.281-35.266 0-35.266z"
         fill="#ffe8be"
         fill-rule="evenodd"
         id="path4" />
      <path
         d="M18.365 24.045c-3.07 1.34-.46 7.687 1.472 7.658a31.973 31.973 0 0 1-1.472-7.658z"
         fill="#f9dca4"
         fill-rule="evenodd"
         id="path5" />
      <path
         d="M44.14 24.045c3.07 1.339.46 7.687-1.471 7.658a31.992 31.992 0 0 0 1.471-7.658z"
         fill="#f9dca4"
         fill-rule="evenodd"
         id="path6" />
      <path
         d="M43.409 29.584s1.066-8.716-2.015-11.752c-1.34 3.528-7.502 4.733-7.502 4.733a16.62 16.62 0 0 0 3.215-2.947c-1.652.715-6.876 2.858-11.61 1.161a23.715 23.715 0 0 0 3.617-2.679s-4.287 2.322-8.44 1.742c-2.991 2.232-1.66 9.162-1.66 9.162C15 18.417 18.697 6.296 31.39 6.226c12.358-.069 16.17 11.847 12.018 23.358z"
         fill="#ecbe6a"
         fill-rule="evenodd"
         id="path7" />
      <path
         d="M23.255 42.179a17.39 17.39 0 0 0 7.958 6.446l-5.182 5.349L19.44 43.87z"
         fill="#ffffff"
         fill-rule="evenodd"
         id="path8" />
      <path
         d="M39.16 42.179a17.391 17.391 0 0 1-7.958 6.446l5.181 5.349 6.592-10.103z"
         fill="#ffffff"
         fill-rule="evenodd"
         id="path9" />
      <path
         d="M33.366 61.7q-1.239.097-2.504.098-.954 0-1.895-.056l1.031-8.757h2.41z"
         fill="#3dbc93"
         fill-rule="evenodd"
         id="path10" />
      <path
         d="M28.472 51.456l2.737-2.817 2.736 2.817-2.736 2.817-2.737-2.817z"
         fill="#3dbc93"
         fill-rule="evenodd"
         id="path11" />
    </g>
  </g>
</svg>
